<svg xmlns="http://www.w3.org/2000/svg" width="512" height="512" viewBox="0 0 32.03 32.03"><g fill="#11c87e"><circle cx="8.676" cy="3.31" r="3.31"/><path d="M10.3 6.98l-.787.33c-.16-.277-.453-.465-.797-.465-.343 0-.635.184-.8.458l-.784-.336c-.116-.047-.208-.04-.312.03-.104.07-.128.186-.128.31v.98c0 .12.015.23.11.298.097.07.17.09.285.06.31-.097.69-.213.91-.28.17.205.428.337.72.337.274 0 .528-.123.698-.318.22.068.615.184.93.28.11.03.235.01.334-.06.092-.07.156-.18.156-.298v-.984c0-.126-.072-.24-.178-.31-.102-.07-.245-.08-.358-.032z"/><path d="M31.345 3.9V2.832l-14.96.02V3.9l1.074.01h.006l-.027 5.837v.002c0 .03-.08.065-.124.104L14.69 12.19l-3.277-4.036-2.74 3.568-2.772-3.833c-1.316.905-3.123 3.06-3.627 7.856 0 0 0 .018-.002.023-.01.097-.02.193-.027.292 0 .015-.003.03-.003.043 0 .015-.003.028-.004.044l-1.55.62 1.61 4.025.704-.282c-.51-.265-.86-.785-.864-1.37 0-.155 0-.307.002-.46.04.71.625 1.314 1.34 1.314.745 0 1.44-.646 1.44-1.39 0-.673-.002-1.302.02-1.88.036-.896.07-1.493.296-2.173.064-.19.082-.313.17-.488l2.132-.757 1.818 4.55-.57.228-1.572-3.928-1.397.558c-.337 1.2-.347 2.667-.34 4.42 0 .143.276.587.346.716V30.71c0 .742.616 1.317 1.354 1.317.742 0 1.354-.522 1.354-1.36h.356c0 .84.687 1.36 1.43 1.36.74 0 1.428-.572 1.428-1.313V19.85c.304-.498.304-1.082.305-1.706V13.16l1.46 1.81c.232.283.578.46.942.487.033.005.06.007.096.007.327 0 .642-.11.887-.332l1.18-1.04.85-.008v8.31h-1.066v1.066h1.066v8.172l12.8.002v-8.172h1.067v-1.066h-1.066v-8.314l1.066-.002.015-1.067-1.054-.002-.01-9.1h-.008l1.073-.01zm-5.338 22.977h-4.285v-2.18h4.285v2.18zm-4.284-8.78v-2.108h4.285v2.106h-4.285zM26.007 8.4h-4.285V6.225h4.285v2.177z"/></g></svg>