<svg xmlns="http://www.w3.org/2000/svg" width="300" height="300" viewBox="0 0 300 300"><title>Slice 1</title><g fill="none"><path d="M51.667 268.143L29.16 7.567h247.294L253.927 268.1l-101.27 28.984-100.99-28.94zm0 0" fill="#008d54"/><path d="M152.81 274.93l81.83-23.418 19.25-222.64H152.81v246.06zm0 0" fill="#11c87e"/><g fill="#fff"><path d="M237.404 123.28h-43.63V90.552h46.39l2.745-31.96h-81.504v96.643h42.208l-3.728 41.448-38.48 7.23v33.317l67.418-15.834zM144.494 58.593h-69.13l2.87 31.973h35.184V199.31l-17.244-2.605-2.205-25.488H62.892l4.337 50.18c77.264 15.833.293-.013 77.264 15.833z"/></g></g></svg>