<svg xmlns="http://www.w3.org/2000/svg" width="512" height="512" viewBox="0 0 392.186 392.186"><g fill="#11c87e"><path d="M368.62 17.95H23.568C10.57 17.95 0 28.525 0 41.52v309.146c0 12.996 10.57 23.568 23.568 23.568H368.62c12.995 0 23.565-10.572 23.565-23.568V41.52c.003-12.995-10.57-23.57-23.565-23.57zM297.56 57.53c0-4.806 3.896-8.703 8.7-8.703h8.704c4.808 0 8.7 3.896 8.7 8.703v9.863c0 4.807-3.895 8.703-8.7 8.703h-8.703c-4.804 0-8.7-3.896-8.7-8.702V57.53zm-40.467 0c0-4.806 3.898-8.703 8.703-8.703h8.7c4.806 0 8.704 3.896 8.704 8.703v9.863c0 4.807-3.898 8.703-8.703 8.703h-8.7c-4.806 0-8.704-3.896-8.704-8.702V57.53zm106.81 288.423H28.283V102.236h335.62V345.95zm.23-278.56c0 4.807-3.897 8.703-8.702 8.703h-8.702c-4.81 0-8.702-3.896-8.702-8.702V57.53c0-4.806 3.896-8.703 8.702-8.703h8.703c4.807 0 8.702 3.896 8.702 8.703v9.863z"/><path d="M84.185 233.284l63.084 29.336c1.63.755 3.366 1.138 5.16 1.138 2.34 0 4.618-.664 6.6-1.924 3.546-2.267 5.665-6.13 5.665-10.334v-.322c0-4.752-2.785-9.116-7.096-11.118l-39.456-18.332 39.455-18.334c4.31-2.004 7.095-6.367 7.095-11.117v-.32c0-4.21-2.12-8.074-5.666-10.333-1.962-1.253-4.247-1.916-6.606-1.916-1.78 0-3.563.39-5.16 1.133l-63.08 29.334c-4.307 2.004-7.09 6.37-7.09 11.117v.878c0 4.74 2.78 9.104 7.09 11.116zM165.257 293.036c2.3 3.15 6.002 5.03 9.9 5.03h.316c5.352 0 10.04-3.426 11.672-8.517L228.7 160.787c1.192-3.716.53-7.818-1.77-10.973-2.302-3.15-6.003-5.03-9.902-5.03h-.315c-5.354 0-10.048 3.425-11.68 8.516l-41.558 128.772c-1.183 3.72-.517 7.817 1.782 10.964zM227.49 192.276c0 4.745 2.783 9.11 7.095 11.123l39.455 18.328-39.455 18.33c-4.31 2.004-7.095 6.368-7.095 11.118v.322c0 4.205 2.117 8.068 5.668 10.336 1.974 1.258 4.254 1.924 6.595 1.924 1.793 0 3.528-.383 5.17-1.142l63.08-29.335c4.307-2.008 7.09-6.37 7.09-11.114v-.877c0-4.75-2.783-9.114-7.094-11.118l-63.08-29.333c-1.592-.74-3.374-1.132-5.153-1.132-2.355 0-4.643.66-6.604 1.912-3.55 2.263-5.67 6.127-5.67 10.337v.318h-.003z"/></g></svg>