<svg width="137" height="79" xmlns="http://www.w3.org/2000/svg">
  <g fill="none" fill-rule="evenodd">
    <path fill="#666" d="M43.3 40.4l-.2-.2a28.4 28.4 0 00-4-3.1c-8.5-5-21.3-5.3-31.5 1a28 28 0 00-2 1.8c-7 7.1-7 16.5-2.7 23.5a29.9 29.9 0 007.4 8.3 25.3 25.3 0 004.4 2.6 20 20 0 0017-.3l2.4-1.2a31 31 0 006.5-5l.6-.6 14.4-14.4a106.6 106.6 0 00-12.3-12.4M136.4 24.3a23.3 23.3 0 00-.5-3l-.4-1.5-.6-1.5-.6-1.5a19.1 19.1 0 00-1.7-2.8l-1-1.4-1-1.4-1.3-1.3-.5-.5c-7.6-7.5-18.7-9.8-29.7-1.6a36 36 0 00-2.4 2h-.1v.1l-.2.2a23 23 0 00-1.7 1.7l-.9.9-.3.3-12.8 12.6.5.5A100.8 100.8 0 0096.4 41l.5.3a28.2 28.2 0 009.1 3.4 34 34 0 0012.3-.1c2.6-.6 5.3-1.5 7.9-2.7l1.1-.7.8-.4h.1l.3-.2.1-.1a23.2 23.2 0 004.1-4.3c1.8-2.5 3-5.2 3.5-8 .2-1.3.3-2.6.2-3.9"/>
    <path fill="#eee" d="M128.2 40.7l-.1.1-.8.4-1.1.7a32.9 32.9 0 01-24.5 1.7 23.4 23.4 0 01-4.8-2.3l-.5-.3a56.3 56.3 0 01-11-10 99.8 99.8 0 01-4.2-4.9l-.5-.5c-4.4-5.3-6.6-8.5-12.3-16.3l-.2-.1c-.6-1-1.3-1.8-2.1-2.7l-2.5-2.2-.6-.5-.6-.3a9 9 0 00-1.2-.8l-.5-.3L60 2a12 12 0 00-1.3-.7L57.4 1l-.9-.4-.7-.1-1-.2h-.4l-1-.2h-2.9l-1 .1h-.4a24.9 24.9 0 00-2.4.7 14.5 14.5 0 00-2.4 1.2l-.4.2-.5.3a5 5 0 00-1 .8l-1 .8-.2.1A14.5 14.5 0 0040 5.5c-1 1-1.7 2-2.4 3.2l-.1.1C28.8 22.6 24 26.3 9.8 36.5l-1.1.7-1 .9a31.5 31.5 0 0133.3.3l2.1 1.8.2.2a87 87 0 0111.9 12l.4.4C59.8 58 62 61 67.4 68.2c0 .2.1.3.3.4 0 .2.1.3.3.5l.5.6.5.7 1 1.2.5.5.3.3a15.8 15.8 0 003.2 2.7l1.2.7 1 .6 2.7 1.1 1 .3.7.2 1 .2h.3l1 .2h3l1-.1h.4l.8-.3c.3 0 .5 0 .7-.2l.8-.2c.9-.3 1.7-.7 2.5-1.2l.9-.5 1-.8 1-.8a16.9 16.9 0 001.8-1.8l.5-.6c.5-.5.9-1 1.2-1.7l.3-.4.1-.2.2-.3a74.3 74.3 0 0112.5-15.5c4.8-4.8 8.4-7.2 14.8-11.7l.2-.1.7-.5 1.2-1h-.1c0 .1 0 .2-.2.2"/>
  </g>
</svg>
