<svg xmlns="http://www.w3.org/2000/svg" width="181.221" height="145.697">
  <defs>
    <clipPath id="a">
      <path d="M239.595 200.36l-24.026-50.005a.965.965 0 0 1 .87-1.384h30.228c.37 0 .709.213.87.547l9.525 19.798a.965.965 0 0 1-.013.865l-15.727 30.207a.952.952 0 0 1-.856.519.955.955 0 0 1-.871-.547"/>
    </clipPath>
    <clipPath id="b">
      <path d="M325.538 200.388l-15.727-30.207a.965.965 0 0 1-.014-.865l9.526-19.798a.966.966 0 0 1 .87-.547h30.228a.967.967 0 0 1 .871 1.384l-24.027 50.005a.955.955 0 0 1-.871.547.953.953 0 0 1-.856-.519"/>
    </clipPath>
    <clipPath id="c">
      <path d="M0 566.93h566.93V0H0z"/>
    </clipPath>
  </defs>
  <g clip-path="url(#a)" transform="matrix(1.33333 0 0 -1.33333 -287.296 326.954)" fill="#535353">
    <path d="M239.595 200.36l-24.026-50.005a.965.965 0 0 1 .87-1.384h30.228c.37 0 .709.213.87.547l9.525 19.798a.965.965 0 0 1-.013.865l-15.727 30.207a.952.952 0 0 1-.856.519.955.955 0 0 1-.871-.547"/>
  </g>
  <g clip-path="url(#b)" transform="matrix(1.33333 0 0 -1.33333 -287.296 326.954)" fill="#535353">
    <path d="M325.538 200.388l-15.727-30.207a.965.965 0 0 1-.014-.865l9.526-19.798a.966.966 0 0 1 .87-.547h30.228a.967.967 0 0 1 .871 1.384l-24.027 50.005a.955.955 0 0 1-.871.547.953.953 0 0 1-.856-.519"/>
  </g>
  <g clip-path="url(#c)" transform="matrix(1.33333 0 0 -1.33333 -287.296 326.954)">
    <path d="M330.126 215.796h-32.688a1.668 1.668 0 0 1-1.437-.82l-11.481-19.443c-.661-1.12-2.293-1.086-2.907.06l-26.086 48.742c-.29.543-.855.88-1.471.88H219.28c-1.297 0-2.098-1.415-1.429-2.527l63.748-105.937a1.668 1.668 0 0 1 2.85-.014l47.098 76.516c.684 1.112-.116 2.543-1.421 2.543" fill="#636363"/>
  </g>
</svg>